name Walk7.mot
datacolumns 19
datarows 20
range 2.51600000 2.53500000
endheader

                time	   L_ground_force_vx	   L_ground_force_vy	   L_ground_force_vz	   L_ground_force_px	   L_ground_force_py	   L_ground_force_pz	   R_ground_force_vx	   R_ground_force_vy	   R_ground_force_vz	   R_ground_force_px	   R_ground_force_py	   R_ground_force_pz	   L_ground_torque_x	   L_ground_torque_y	   L_ground_torque_z	   R_ground_torque_x	   R_ground_torque_y	   R_ground_torque_z	
          2.51600000	         -0.00000000	         -0.00000000	          0.00000000	         -0.00000000	          0.00000000	         -0.00000000	         13.97375085	         53.39313274	         15.17598098	          0.49301213	          0.00000000	          0.10388520	          0.00000000	          0.00000000	          0.00000000	          0.00000000	         -2.94047489	          0.00000000	
          2.51700000	         -0.00000000	         -0.00000000	          0.00000000	         -0.00000000	          0.00000000	         -0.00000000	         13.02462711	         49.47026724	         14.57471195	          0.48154722	          0.00000000	          0.10154967	          0.00000000	          0.00000000	          0.00000000	          0.00000000	         -2.74386480	          0.00000000	
          2.51800000	         -0.00000000	         -0.00000000	          0.00000000	         -0.00000000	          0.00000000	         -0.00000000	         12.10786544	         45.71194413	         13.97440597	          0.46969320	          0.00000000	          0.09912996	          0.00000000	          0.00000000	          0.00000000	          0.00000000	         -2.55399029	          0.00000000	
          2.51900000	         -0.00000000	         -0.00000000	          0.00000000	         -0.00000000	          0.00000000	         -0.00000000	         11.22386837	         42.11530376	         13.37638723	          0.45746459	          0.00000000	          0.09662853	          0.00000000	          0.00000000	          0.00000000	          0.00000000	         -2.37090388	          0.00000000	
          2.52000000	         -0.00000000	         -0.00000000	          0.00000000	         -0.00000000	          0.00000000	         -0.00000000	         10.37295409	         38.67740926	         12.78194349	          0.44487879	          0.00000000	          0.09404847	          0.00000000	          0.00000000	          0.00000000	          0.00000000	         -2.19464393	          0.00000000	
          2.52100000	         -0.00000000	         -0.00000000	          0.00000000	         -0.00000000	          0.00000000	         -0.00000000	          9.55535420	         35.39526194	         12.19232333	          0.43195635	          0.00000000	          0.09139353	          0.00000000	          0.00000000	          0.00000000	          0.00000000	         -2.02523436	          0.00000000	
          2.52200000	         -0.00000000	         -0.00000000	          0.00000000	         -0.00000000	          0.00000000	         -0.00000000	          8.77121133	         32.26581739	         11.60873482	          0.41872110	          0.00000000	          0.08866822	          0.00000000	         -0.00000000	          0.00000000	          0.00000000	         -1.86268436	          0.00000000	
          2.52300000	         -0.00000000	         -0.00000000	          0.00000000	         -0.00000000	          0.00000000	         -0.00000000	          8.02057651	         29.28600277	         11.03234518	          0.40520042	          0.00000000	          0.08587786	          0.00000000	         -0.00000000	          0.00000000	          0.00000000	         -1.70698807	          0.00000000	
          2.52400000	         -0.00000000	         -0.00000000	          0.00000000	         -0.00000000	          0.00000000	         -0.00000000	          7.30340636	         26.45273473	         10.46428086	          0.39142544	          0.00000000	          0.08302866	          0.00000000	         -0.00000000	          0.00000000	          0.00000000	         -1.55812414	          0.00000000	
          2.52500000	         -0.00000000	         -0.00000000	          0.00000000	         -0.00000000	          0.00000000	         -0.00000000	          6.61956053	         23.76293607	          9.90562703	          0.37743122	          0.00000000	          0.08012777	          0.00000000	         -0.00000000	          0.00000000	          0.00000000	         -1.41605544	          0.00000000	
          2.52600000	         -0.00000000	         -0.00000000	          0.00000000	         -0.00000000	          0.00000000	         -0.00000000	          5.96880003	         21.21354793	          9.35742547	          0.36325700	          0.00000000	          0.07718334	          0.00000000	         -0.00000000	          0.00000000	          0.00000000	         -1.28072873	          0.00000000	
          2.52700000	         -0.00000000	         -0.00000000	          0.00000000	         -0.00000000	          0.00000000	         -0.00000000	          5.35078713	         18.80153341	          8.82067010	          0.34894639	          0.00000000	          0.07420454	          0.00000000	         -0.00000000	          0.00000000	          0.00000000	         -1.15207473	          0.00000000	
          2.52800000	         -0.00000000	         -0.00000000	          0.00000000	         -0.00000000	          0.00000000	         -0.00000000	          4.76508767	         16.52386818	          8.29629960	          0.33454757	          0.00000000	          0.07120165	          0.00000000	         -0.00000000	          0.00000000	          0.00000000	         -1.03000829	          0.00000000	
          2.52900000	         -0.00000000	         -0.00000000	          0.00000000	          0.00000000	          0.00000000	         -0.00000000	          4.21117661	         14.37750785	          7.78518530	          0.32011285	          0.00000000	          0.06818593	          0.00000000	         -0.00000000	          0.00000000	          0.00000000	         -0.91442886	          0.00000000	
          2.53000000	         -0.00000000	         -0.00000000	          0.00000000	          0.00000000	          0.00000000	         -0.00000000	          3.68844771	         12.35932288	          7.28811265	          0.30569639	          0.00000000	          0.06516908	          0.00000000	         -0.00000000	          0.00000000	          0.00000000	         -0.80522114	          0.00000000	
          2.53100000	         -0.00000000	         -0.00000000	          0.00000000	          0.00000000	          0.00000000	         -0.00000000	          3.19622562	         10.46602939	          6.80576310	          0.29135052	          0.00000000	          0.06216249	          0.00000000	         -0.00000000	          0.00000000	          0.00000000	         -0.70225597	          0.00000000	
          2.53200000	         -0.00000000	         -0.00000000	          0.00000000	          0.00000000	          0.00000000	          0.00000000	          2.73377651	          8.69416291	          6.33870753	          0.27712346	          0.00000000	          0.05917663	          0.00000000	         -0.00000000	          0.00000000	          0.00000000	         -0.60539167	          0.00000000	
          2.53300000	         -0.00000000	         -0.00000000	          0.00000000	          0.00000000	          0.00000000	          0.00000000	          2.30031645	          7.04009468	          5.88741046	          0.26305885	          0.00000000	          0.05622102	          0.00000000	         -0.00000000	          0.00000000	          0.00000000	         -0.51447553	          0.00000000	
          2.53400000	         -0.00000000	         -0.00000000	          0.00000000	          0.00000000	          0.00000000	          0.00000000	          1.89501860	          5.50005935	          5.45223740	          0.24919603	          0.00000000	          0.05330427	          0.00000000	         -0.00000000	          0.00000000	          0.00000000	         -0.42934539	          0.00000000	
          2.53500000	         -0.00000000	         -0.00000000	          0.00000000	          0.00000000	          0.00000000	          0.00000000	          1.51702003	          4.07018078	          5.03346183	          0.23557024	          0.00000000	          0.05043408	          0.00000000	         -0.00000000	          0.00000000	          0.00000000	         -0.34983096	          0.00000000	
